<?xml version="1.0" encoding="UTF-8"?>
<svg xmlns="http://www.w3.org/2000/svg" xmlns:xlink="http://www.w3.org/1999/xlink" width="854" height="480" viewBox="0 0 854 480">
<defs>
<g>
<g id="glyph-0-0">
<path d="M 0.859375 0.03125 C 0.640625 0.03125 0.472656 -0.0390625 0.359375 -0.1875 C 0.242188 -0.332031 0.1875 -0.566406 0.1875 -0.890625 C 0.1875 -1.210938 0.242188 -1.445312 0.359375 -1.59375 C 0.472656 -1.738281 0.640625 -1.8125 0.859375 -1.8125 C 0.992188 -1.8125 1.097656 -1.785156 1.171875 -1.734375 C 1.253906 -1.679688 1.320312 -1.613281 1.375 -1.53125 L 1.390625 -1.53125 C 1.378906 -1.582031 1.375 -1.640625 1.375 -1.703125 C 1.375 -1.773438 1.375 -1.835938 1.375 -1.890625 L 1.375 -2.15625 C 1.375 -2.257812 1.34375 -2.320312 1.28125 -2.34375 C 1.226562 -2.375 1.164062 -2.390625 1.09375 -2.390625 L 1.078125 -2.390625 L 1.078125 -2.53125 L 1.6875 -2.53125 L 1.6875 -0.359375 C 1.6875 -0.265625 1.710938 -0.203125 1.765625 -0.171875 C 1.816406 -0.148438 1.878906 -0.140625 1.953125 -0.140625 L 1.984375 -0.140625 L 1.984375 0 L 1.421875 0 L 1.390625 -0.296875 L 1.375 -0.296875 C 1.320312 -0.191406 1.253906 -0.109375 1.171875 -0.046875 C 1.097656 0.00390625 0.992188 0.03125 0.859375 0.03125 Z M 0.921875 -0.1875 C 1.085938 -0.1875 1.203125 -0.242188 1.265625 -0.359375 C 1.335938 -0.472656 1.375 -0.648438 1.375 -0.890625 C 1.375 -1.117188 1.335938 -1.296875 1.265625 -1.421875 C 1.203125 -1.546875 1.085938 -1.609375 0.921875 -1.609375 C 0.773438 -1.609375 0.664062 -1.546875 0.59375 -1.421875 C 0.53125 -1.296875 0.5 -1.117188 0.5 -0.890625 C 0.5 -0.648438 0.53125 -0.472656 0.59375 -0.359375 C 0.664062 -0.242188 0.773438 -0.1875 0.921875 -0.1875 Z "/>
</g>
<g id="glyph-0-1">
<path d="M 0.953125 0.03125 C 0.710938 0.03125 0.523438 -0.0390625 0.390625 -0.1875 C 0.253906 -0.34375 0.1875 -0.578125 0.1875 -0.890625 C 0.1875 -1.203125 0.25 -1.429688 0.375 -1.578125 C 0.507812 -1.734375 0.707031 -1.8125 0.96875 -1.8125 C 1.207031 -1.8125 1.394531 -1.734375 1.53125 -1.578125 C 1.664062 -1.429688 1.734375 -1.203125 1.734375 -0.890625 C 1.734375 -0.578125 1.664062 -0.34375 1.53125 -0.1875 C 1.40625 -0.0390625 1.210938 0.03125 0.953125 0.03125 Z M 0.96875 -0.140625 C 1.132812 -0.140625 1.25 -0.203125 1.3125 -0.328125 C 1.382812 -0.453125 1.421875 -0.640625 1.421875 -0.890625 C 1.421875 -1.140625 1.382812 -1.328125 1.3125 -1.453125 C 1.238281 -1.578125 1.117188 -1.640625 0.953125 -1.640625 C 0.785156 -1.640625 0.664062 -1.578125 0.59375 -1.453125 C 0.53125 -1.328125 0.5 -1.140625 0.5 -0.890625 C 0.5 -0.640625 0.535156 -0.453125 0.609375 -0.328125 C 0.679688 -0.203125 0.800781 -0.140625 0.96875 -0.140625 Z "/>
</g>
<g id="glyph-0-2">
<path d="M 0.09375 0 L 0.09375 -0.140625 L 0.125 -0.140625 C 0.195312 -0.140625 0.257812 -0.148438 0.3125 -0.171875 C 0.363281 -0.203125 0.390625 -0.269531 0.390625 -0.375 L 0.390625 -1.421875 C 0.390625 -1.515625 0.363281 -1.570312 0.3125 -1.59375 C 0.257812 -1.625 0.195312 -1.640625 0.125 -1.640625 L 0.109375 -1.640625 L 0.109375 -1.78125 L 0.65625 -1.78125 L 0.6875 -1.515625 L 0.703125 -1.515625 C 0.773438 -1.640625 0.851562 -1.71875 0.9375 -1.75 C 1.019531 -1.789062 1.117188 -1.8125 1.234375 -1.8125 C 1.398438 -1.8125 1.53125 -1.757812 1.625 -1.65625 C 1.726562 -1.550781 1.78125 -1.390625 1.78125 -1.171875 L 1.78125 -0.375 C 1.78125 -0.269531 1.800781 -0.203125 1.84375 -0.171875 C 1.894531 -0.148438 1.957031 -0.140625 2.03125 -0.140625 L 2.046875 -0.140625 L 2.046875 0 L 1.46875 0 L 1.46875 -1.140625 C 1.46875 -1.285156 1.441406 -1.398438 1.390625 -1.484375 C 1.335938 -1.566406 1.242188 -1.609375 1.109375 -1.609375 C 1.003906 -1.609375 0.921875 -1.582031 0.859375 -1.53125 C 0.804688 -1.476562 0.765625 -1.410156 0.734375 -1.328125 C 0.710938 -1.242188 0.703125 -1.15625 0.703125 -1.0625 L 0.703125 -0.359375 C 0.703125 -0.265625 0.726562 -0.203125 0.78125 -0.171875 C 0.832031 -0.148438 0.894531 -0.140625 0.96875 -0.140625 L 0.984375 -0.140625 L 0.984375 0 Z "/>
</g>
<g id="glyph-0-3">
<path d="M 0.953125 0.03125 C 0.710938 0.03125 0.523438 -0.046875 0.390625 -0.203125 C 0.253906 -0.367188 0.1875 -0.59375 0.1875 -0.875 C 0.1875 -1.1875 0.25 -1.421875 0.375 -1.578125 C 0.5 -1.734375 0.679688 -1.8125 0.921875 -1.8125 C 1.140625 -1.8125 1.304688 -1.742188 1.421875 -1.609375 C 1.546875 -1.484375 1.609375 -1.285156 1.609375 -1.015625 L 1.609375 -0.875 L 0.5 -0.875 C 0.507812 -0.625 0.554688 -0.441406 0.640625 -0.328125 C 0.722656 -0.222656 0.84375 -0.171875 1 -0.171875 C 1.113281 -0.171875 1.210938 -0.191406 1.296875 -0.234375 C 1.378906 -0.285156 1.441406 -0.34375 1.484375 -0.40625 C 1.492188 -0.40625 1.503906 -0.394531 1.515625 -0.375 C 1.535156 -0.351562 1.546875 -0.328125 1.546875 -0.296875 C 1.546875 -0.253906 1.523438 -0.207031 1.484375 -0.15625 C 1.441406 -0.101562 1.375 -0.0546875 1.28125 -0.015625 C 1.195312 0.015625 1.085938 0.03125 0.953125 0.03125 Z M 1.28125 -1.046875 C 1.28125 -1.222656 1.25 -1.363281 1.1875 -1.46875 C 1.132812 -1.582031 1.046875 -1.640625 0.921875 -1.640625 C 0.796875 -1.640625 0.695312 -1.585938 0.625 -1.484375 C 0.5625 -1.378906 0.523438 -1.234375 0.515625 -1.046875 Z "/>
</g>
<g id="glyph-0-4">
</g>
<g id="glyph-1-0">
<path d="M 6.6875 -10.375 L 6.6875 1.125 L 7.3125 1.125 L 7.3125 -10.375 C 7.96875 -9.484375 8.96875 -8.453125 9.984375 -7.71875 L 10.359375 -8.1875 C 9.0625 -9.140625 7.8125 -10.5625 7 -11.84375 C 6.1875 -10.5625 4.9375 -9.140625 3.640625 -8.1875 L 4.015625 -7.71875 C 5.015625 -8.4375 6.03125 -9.484375 6.6875 -10.375 Z "/>
</g>
</g>
</defs>
<g fill="rgb(95.294118%, 54.509804%, 65.882353%)" fill-opacity="1">
<use xlink:href="#glyph-0-0" x="30" y="36.114258"/>
<use xlink:href="#glyph-0-1" x="32" y="36.114258"/>
<use xlink:href="#glyph-0-2" x="34" y="36.114258"/>
<use xlink:href="#glyph-0-3" x="36" y="36.114258"/>
<use xlink:href="#glyph-0-4" x="38" y="36.114258"/>
</g>
<g fill="rgb(95.294118%, 54.509804%, 65.882353%)" fill-opacity="1">
<use xlink:href="#glyph-1-0" x="39" y="36.114258"/>
</g>
</svg>
