<?xml version="1.0" encoding="UTF-8"?>
<svg xmlns="http://www.w3.org/2000/svg" xmlns:xlink="http://www.w3.org/1999/xlink" width="854" height="480" viewBox="0 0 854 480">
<defs>
<g>
<g id="glyph-0-0">
<path d="M 0.109375 0 L 0.109375 -0.125 L 0.15625 -0.125 C 0.21875 -0.125 0.273438 -0.132812 0.328125 -0.15625 C 0.378906 -0.1875 0.40625 -0.242188 0.40625 -0.328125 L 0.40625 -1.84375 C 0.40625 -1.9375 0.378906 -1.992188 0.328125 -2.015625 C 0.273438 -2.046875 0.21875 -2.0625 0.15625 -2.0625 L 0.109375 -2.0625 L 0.109375 -2.1875 L 0.8125 -2.1875 L 1.453125 -0.4375 L 2.078125 -2.1875 L 2.75 -2.1875 L 2.75 -2.0625 L 2.71875 -2.0625 C 2.644531 -2.0625 2.582031 -2.046875 2.53125 -2.015625 C 2.488281 -1.992188 2.46875 -1.9375 2.46875 -1.84375 L 2.46875 -0.34375 C 2.46875 -0.25 2.488281 -0.1875 2.53125 -0.15625 C 2.582031 -0.132812 2.644531 -0.125 2.71875 -0.125 L 2.75 -0.125 L 2.75 0 L 1.9375 0 L 1.9375 -0.125 L 1.953125 -0.125 C 2.015625 -0.125 2.066406 -0.132812 2.109375 -0.15625 C 2.148438 -0.1875 2.171875 -0.242188 2.171875 -0.328125 L 2.171875 -1.953125 L 1.46875 0 L 1.296875 0 L 0.59375 -1.953125 L 0.59375 -0.34375 C 0.59375 -0.25 0.609375 -0.1875 0.640625 -0.15625 C 0.679688 -0.132812 0.738281 -0.125 0.8125 -0.125 L 0.828125 -0.125 L 0.828125 0 Z "/>
</g>
<g id="glyph-0-1">
<path d="M 0.875 0.03125 C 0.65625 0.03125 0.484375 -0.0390625 0.359375 -0.1875 C 0.234375 -0.332031 0.171875 -0.539062 0.171875 -0.8125 C 0.171875 -1.09375 0.226562 -1.304688 0.34375 -1.453125 C 0.46875 -1.597656 0.632812 -1.671875 0.84375 -1.671875 C 1.039062 -1.671875 1.195312 -1.609375 1.3125 -1.484375 C 1.425781 -1.359375 1.484375 -1.175781 1.484375 -0.9375 L 1.484375 -0.796875 L 0.46875 -0.796875 C 0.46875 -0.578125 0.503906 -0.414062 0.578125 -0.3125 C 0.660156 -0.207031 0.773438 -0.15625 0.921875 -0.15625 C 1.023438 -0.15625 1.113281 -0.175781 1.1875 -0.21875 C 1.257812 -0.269531 1.316406 -0.320312 1.359375 -0.375 C 1.367188 -0.375 1.378906 -0.363281 1.390625 -0.34375 C 1.410156 -0.320312 1.421875 -0.296875 1.421875 -0.265625 C 1.421875 -0.234375 1.398438 -0.191406 1.359375 -0.140625 C 1.316406 -0.0976562 1.253906 -0.0546875 1.171875 -0.015625 C 1.097656 0.015625 1 0.03125 0.875 0.03125 Z M 1.171875 -0.96875 C 1.171875 -1.125 1.144531 -1.25 1.09375 -1.34375 C 1.050781 -1.445312 0.96875 -1.5 0.84375 -1.5 C 0.726562 -1.5 0.640625 -1.453125 0.578125 -1.359375 C 0.515625 -1.273438 0.476562 -1.144531 0.46875 -0.96875 Z "/>
</g>
<g id="glyph-0-2">
<path d="M 0.078125 0 L 0.078125 -0.125 L 0.125 -0.125 C 0.195312 -0.125 0.253906 -0.132812 0.296875 -0.15625 C 0.335938 -0.1875 0.359375 -0.25 0.359375 -0.34375 L 0.359375 -1.296875 C 0.359375 -1.390625 0.335938 -1.445312 0.296875 -1.46875 C 0.253906 -1.5 0.195312 -1.515625 0.125 -1.515625 L 0.109375 -1.515625 L 0.109375 -1.640625 L 0.59375 -1.640625 L 0.640625 -1.390625 L 0.65625 -1.390625 C 0.71875 -1.503906 0.785156 -1.578125 0.859375 -1.609375 C 0.929688 -1.648438 1.015625 -1.671875 1.109375 -1.671875 C 1.210938 -1.671875 1.300781 -1.648438 1.375 -1.609375 C 1.457031 -1.566406 1.519531 -1.492188 1.5625 -1.390625 L 1.578125 -1.390625 C 1.640625 -1.503906 1.710938 -1.578125 1.796875 -1.609375 C 1.878906 -1.648438 1.96875 -1.671875 2.0625 -1.671875 C 2.21875 -1.671875 2.335938 -1.625 2.421875 -1.53125 C 2.515625 -1.4375 2.5625 -1.285156 2.5625 -1.078125 L 2.5625 -0.34375 C 2.5625 -0.25 2.582031 -0.1875 2.625 -0.15625 C 2.664062 -0.132812 2.722656 -0.125 2.796875 -0.125 L 2.8125 -0.125 L 2.8125 0 L 2.28125 0 L 2.28125 -1.0625 C 2.28125 -1.1875 2.253906 -1.285156 2.203125 -1.359375 C 2.148438 -1.429688 2.066406 -1.46875 1.953125 -1.46875 C 1.867188 -1.46875 1.800781 -1.445312 1.75 -1.40625 C 1.695312 -1.363281 1.660156 -1.304688 1.640625 -1.234375 C 1.617188 -1.171875 1.609375 -1.097656 1.609375 -1.015625 L 1.609375 -0.34375 C 1.609375 -0.25 1.628906 -0.1875 1.671875 -0.15625 C 1.722656 -0.132812 1.78125 -0.125 1.84375 -0.125 L 1.859375 -0.125 L 1.859375 0 L 1.328125 0 L 1.328125 -1.0625 C 1.328125 -1.1875 1.300781 -1.285156 1.25 -1.359375 C 1.207031 -1.429688 1.125 -1.46875 1 -1.46875 C 0.914062 -1.46875 0.847656 -1.445312 0.796875 -1.40625 C 0.742188 -1.363281 0.707031 -1.300781 0.6875 -1.21875 C 0.664062 -1.144531 0.65625 -1.066406 0.65625 -0.984375 L 0.65625 -0.328125 C 0.65625 -0.242188 0.675781 -0.1875 0.71875 -0.15625 C 0.769531 -0.132812 0.832031 -0.125 0.90625 -0.125 L 0.90625 0 Z "/>
</g>
<g id="glyph-0-3">
<path d="M 0.875 0.03125 C 0.65625 0.03125 0.484375 -0.0351562 0.359375 -0.171875 C 0.234375 -0.316406 0.171875 -0.535156 0.171875 -0.828125 C 0.171875 -1.109375 0.226562 -1.316406 0.34375 -1.453125 C 0.46875 -1.597656 0.648438 -1.671875 0.890625 -1.671875 C 1.109375 -1.671875 1.28125 -1.597656 1.40625 -1.453125 C 1.53125 -1.316406 1.59375 -1.109375 1.59375 -0.828125 C 1.59375 -0.535156 1.53125 -0.316406 1.40625 -0.171875 C 1.289062 -0.0351562 1.113281 0.03125 0.875 0.03125 Z M 0.890625 -0.125 C 1.035156 -0.125 1.140625 -0.179688 1.203125 -0.296875 C 1.265625 -0.421875 1.296875 -0.597656 1.296875 -0.828125 C 1.296875 -1.054688 1.265625 -1.226562 1.203125 -1.34375 C 1.140625 -1.457031 1.03125 -1.515625 0.875 -1.515625 C 0.726562 -1.515625 0.625 -1.457031 0.5625 -1.34375 C 0.5 -1.226562 0.46875 -1.054688 0.46875 -0.828125 C 0.46875 -0.597656 0.5 -0.421875 0.5625 -0.296875 C 0.625 -0.179688 0.734375 -0.125 0.890625 -0.125 Z "/>
</g>
<g id="glyph-0-4">
<path d="M 0.09375 0 L 0.09375 -0.125 L 0.109375 -0.125 C 0.179688 -0.125 0.238281 -0.132812 0.28125 -0.15625 C 0.332031 -0.1875 0.359375 -0.25 0.359375 -0.34375 L 0.359375 -1.296875 C 0.359375 -1.390625 0.332031 -1.445312 0.28125 -1.46875 C 0.238281 -1.5 0.179688 -1.515625 0.109375 -1.515625 L 0.09375 -1.515625 L 0.09375 -1.640625 L 0.578125 -1.640625 L 0.625 -1.34375 L 0.640625 -1.34375 C 0.671875 -1.40625 0.703125 -1.457031 0.734375 -1.5 C 0.765625 -1.550781 0.804688 -1.59375 0.859375 -1.625 C 0.910156 -1.65625 0.976562 -1.671875 1.0625 -1.671875 C 1.175781 -1.671875 1.257812 -1.648438 1.3125 -1.609375 C 1.363281 -1.578125 1.390625 -1.523438 1.390625 -1.453125 C 1.390625 -1.390625 1.367188 -1.335938 1.328125 -1.296875 C 1.285156 -1.253906 1.210938 -1.234375 1.109375 -1.234375 C 1.109375 -1.316406 1.09375 -1.375 1.0625 -1.40625 C 1.039062 -1.445312 1.003906 -1.46875 0.953125 -1.46875 C 0.890625 -1.46875 0.835938 -1.441406 0.796875 -1.390625 C 0.765625 -1.347656 0.738281 -1.289062 0.71875 -1.21875 C 0.695312 -1.15625 0.679688 -1.085938 0.671875 -1.015625 C 0.660156 -0.941406 0.65625 -0.875 0.65625 -0.8125 L 0.65625 -0.328125 C 0.65625 -0.242188 0.675781 -0.1875 0.71875 -0.15625 C 0.769531 -0.132812 0.832031 -0.125 0.90625 -0.125 L 0.984375 -0.125 L 0.984375 0 Z "/>
</g>
<g id="glyph-0-5">
<path d="M 0.109375 0.59375 C 0.253906 0.59375 0.367188 0.566406 0.453125 0.515625 C 0.546875 0.460938 0.617188 0.390625 0.671875 0.296875 C 0.722656 0.203125 0.769531 0.0976562 0.8125 -0.015625 L 0.234375 -1.34375 C 0.210938 -1.414062 0.1875 -1.460938 0.15625 -1.484375 C 0.125 -1.503906 0.078125 -1.515625 0.015625 -1.515625 L 0.015625 -1.640625 L 0.75 -1.640625 L 0.75 -1.515625 L 0.734375 -1.515625 C 0.609375 -1.515625 0.546875 -1.460938 0.546875 -1.359375 C 0.546875 -1.328125 0.554688 -1.289062 0.578125 -1.25 L 0.796875 -0.703125 C 0.816406 -0.660156 0.835938 -0.609375 0.859375 -0.546875 C 0.878906 -0.492188 0.894531 -0.441406 0.90625 -0.390625 C 0.925781 -0.335938 0.941406 -0.296875 0.953125 -0.265625 C 0.960938 -0.328125 0.976562 -0.390625 1 -0.453125 C 1.03125 -0.515625 1.054688 -0.578125 1.078125 -0.640625 L 1.28125 -1.234375 C 1.289062 -1.273438 1.296875 -1.316406 1.296875 -1.359375 C 1.296875 -1.460938 1.234375 -1.515625 1.109375 -1.515625 L 1.09375 -1.515625 L 1.09375 -1.640625 L 1.734375 -1.640625 L 1.734375 -1.515625 L 1.71875 -1.515625 C 1.65625 -1.515625 1.609375 -1.5 1.578125 -1.46875 C 1.554688 -1.4375 1.523438 -1.375 1.484375 -1.28125 L 1.015625 0.015625 C 0.960938 0.160156 0.910156 0.28125 0.859375 0.375 C 0.816406 0.46875 0.765625 0.539062 0.703125 0.59375 C 0.640625 0.644531 0.5625 0.679688 0.46875 0.703125 C 0.382812 0.722656 0.273438 0.734375 0.140625 0.734375 L 0.109375 0.734375 Z "/>
</g>
</g>
</defs>
<g fill="rgb(80.392157%, 83.921569%, 95.686275%)" fill-opacity="1">
<use xlink:href="#glyph-0-0" x="30" y="23.266602"/>
<use xlink:href="#glyph-0-1" x="33" y="23.266602"/>
<use xlink:href="#glyph-0-2" x="35" y="23.266602"/>
<use xlink:href="#glyph-0-3" x="38" y="23.266602"/>
<use xlink:href="#glyph-0-4" x="40" y="23.266602"/>
<use xlink:href="#glyph-0-5" x="41" y="23.266602"/>
</g>
</svg>
