<?xml version="1.0" encoding="UTF-8"?>
<svg xmlns="http://www.w3.org/2000/svg" xmlns:xlink="http://www.w3.org/1999/xlink" width="854" height="480" viewBox="0 0 854 480">
<defs>
<g>
<g id="glyph-0-0">
<path d="M 1.4375 0.0625 C 1.070312 0.0625 0.789062 -0.0625 0.59375 -0.3125 C 0.40625 -0.5625 0.3125 -0.953125 0.3125 -1.484375 C 0.3125 -2.023438 0.421875 -2.414062 0.640625 -2.65625 C 0.859375 -2.90625 1.15625 -3.03125 1.53125 -3.03125 C 1.75 -3.03125 1.921875 -2.976562 2.046875 -2.875 C 2.179688 -2.769531 2.285156 -2.628906 2.359375 -2.453125 L 2.390625 -2.453125 C 2.453125 -2.660156 2.546875 -2.835938 2.671875 -2.984375 L 2.953125 -2.984375 C 2.929688 -2.910156 2.910156 -2.804688 2.890625 -2.671875 C 2.867188 -2.546875 2.847656 -2.410156 2.828125 -2.265625 C 2.816406 -2.128906 2.8125 -2.003906 2.8125 -1.890625 L 2.8125 -0.75 C 2.8125 -0.582031 2.847656 -0.453125 2.921875 -0.359375 C 3.003906 -0.273438 3.117188 -0.234375 3.265625 -0.234375 L 3.3125 -0.234375 L 3.3125 0 L 2.84375 0 C 2.726562 0 2.628906 -0.0234375 2.546875 -0.078125 C 2.472656 -0.140625 2.421875 -0.210938 2.390625 -0.296875 C 2.359375 -0.378906 2.332031 -0.460938 2.3125 -0.546875 L 2.296875 -0.546875 C 2.210938 -0.367188 2.101562 -0.222656 1.96875 -0.109375 C 1.832031 0.00390625 1.65625 0.0625 1.4375 0.0625 Z M 1.53125 -0.296875 C 1.726562 -0.296875 1.878906 -0.359375 1.984375 -0.484375 C 2.097656 -0.609375 2.175781 -0.773438 2.21875 -0.984375 C 2.269531 -1.203125 2.296875 -1.445312 2.296875 -1.71875 L 2.296875 -1.9375 C 2.242188 -2.207031 2.148438 -2.398438 2.015625 -2.515625 C 1.890625 -2.628906 1.75 -2.6875 1.59375 -2.6875 C 1.332031 -2.6875 1.140625 -2.582031 1.015625 -2.375 C 0.898438 -2.175781 0.84375 -1.878906 0.84375 -1.484375 C 0.84375 -1.085938 0.894531 -0.789062 1 -0.59375 C 1.101562 -0.394531 1.28125 -0.296875 1.53125 -0.296875 Z "/>
</g>
</g>
</defs>
<g fill="rgb(80.392157%, 83.921569%, 95.686275%)" fill-opacity="1">
<use xlink:href="#glyph-0-0" x="30" y="25.939453"/>
</g>
</svg>
