<?xml version="1.0" encoding="UTF-8"?>
<svg xmlns="http://www.w3.org/2000/svg" xmlns:xlink="http://www.w3.org/1999/xlink" width="854" height="480" viewBox="0 0 854 480">
<defs>
<g>
<g id="glyph-0-0">
<path d="M 0.078125 0 L 0.078125 -0.109375 L 0.09375 -0.109375 C 0.144531 -0.109375 0.191406 -0.117188 0.234375 -0.140625 C 0.273438 -0.160156 0.296875 -0.207031 0.296875 -0.28125 L 0.296875 -1.0625 C 0.296875 -1.132812 0.273438 -1.179688 0.234375 -1.203125 C 0.191406 -1.222656 0.144531 -1.234375 0.09375 -1.234375 L 0.078125 -1.234375 L 0.078125 -1.34375 L 0.46875 -1.34375 L 0.515625 -1.09375 L 0.53125 -1.09375 C 0.550781 -1.144531 0.570312 -1.191406 0.59375 -1.234375 C 0.625 -1.273438 0.660156 -1.304688 0.703125 -1.328125 C 0.742188 -1.347656 0.800781 -1.359375 0.875 -1.359375 C 0.957031 -1.359375 1.019531 -1.34375 1.0625 -1.3125 C 1.113281 -1.28125 1.140625 -1.238281 1.140625 -1.1875 C 1.140625 -1.132812 1.117188 -1.085938 1.078125 -1.046875 C 1.046875 -1.015625 0.988281 -1 0.90625 -1 C 0.90625 -1.070312 0.894531 -1.125 0.875 -1.15625 C 0.851562 -1.1875 0.820312 -1.203125 0.78125 -1.203125 C 0.726562 -1.203125 0.6875 -1.179688 0.65625 -1.140625 C 0.625 -1.109375 0.597656 -1.0625 0.578125 -1 C 0.566406 -0.945312 0.554688 -0.890625 0.546875 -0.828125 C 0.535156 -0.765625 0.53125 -0.710938 0.53125 -0.671875 L 0.53125 -0.265625 C 0.53125 -0.191406 0.550781 -0.144531 0.59375 -0.125 C 0.632812 -0.113281 0.679688 -0.109375 0.734375 -0.109375 L 0.8125 -0.109375 L 0.8125 0 Z "/>
</g>
<g id="glyph-0-1">
<path d="M 0.71875 0.03125 C 0.53125 0.03125 0.382812 -0.0234375 0.28125 -0.140625 C 0.1875 -0.265625 0.140625 -0.4375 0.140625 -0.65625 C 0.140625 -0.894531 0.1875 -1.070312 0.28125 -1.1875 C 0.375 -1.300781 0.507812 -1.359375 0.6875 -1.359375 C 0.851562 -1.359375 0.984375 -1.304688 1.078125 -1.203125 C 1.171875 -1.109375 1.21875 -0.960938 1.21875 -0.765625 L 1.21875 -0.65625 L 0.375 -0.65625 C 0.382812 -0.46875 0.421875 -0.332031 0.484375 -0.25 C 0.546875 -0.164062 0.632812 -0.125 0.75 -0.125 C 0.832031 -0.125 0.90625 -0.140625 0.96875 -0.171875 C 1.03125 -0.210938 1.078125 -0.257812 1.109375 -0.3125 C 1.117188 -0.300781 1.128906 -0.285156 1.140625 -0.265625 C 1.148438 -0.253906 1.15625 -0.238281 1.15625 -0.21875 C 1.15625 -0.1875 1.140625 -0.148438 1.109375 -0.109375 C 1.078125 -0.078125 1.03125 -0.046875 0.96875 -0.015625 C 0.90625 0.015625 0.820312 0.03125 0.71875 0.03125 Z M 0.953125 -0.78125 C 0.953125 -0.914062 0.929688 -1.023438 0.890625 -1.109375 C 0.859375 -1.191406 0.789062 -1.234375 0.6875 -1.234375 C 0.59375 -1.234375 0.519531 -1.191406 0.46875 -1.109375 C 0.414062 -1.035156 0.390625 -0.925781 0.390625 -0.78125 Z "/>
</g>
<g id="glyph-0-2">
<path d="M 0.53125 0.03125 C 0.40625 0.03125 0.300781 0.0078125 0.21875 -0.03125 C 0.144531 -0.0820312 0.109375 -0.148438 0.109375 -0.234375 C 0.109375 -0.285156 0.117188 -0.320312 0.140625 -0.34375 C 0.160156 -0.363281 0.179688 -0.378906 0.203125 -0.390625 C 0.222656 -0.398438 0.242188 -0.40625 0.265625 -0.40625 C 0.265625 -0.320312 0.285156 -0.25 0.328125 -0.1875 C 0.367188 -0.125 0.441406 -0.09375 0.546875 -0.09375 C 0.628906 -0.09375 0.691406 -0.113281 0.734375 -0.15625 C 0.785156 -0.195312 0.8125 -0.253906 0.8125 -0.328125 C 0.8125 -0.367188 0.800781 -0.398438 0.78125 -0.421875 C 0.769531 -0.453125 0.738281 -0.476562 0.6875 -0.5 C 0.644531 -0.53125 0.582031 -0.5625 0.5 -0.59375 C 0.414062 -0.632812 0.347656 -0.671875 0.296875 -0.703125 C 0.242188 -0.742188 0.203125 -0.785156 0.171875 -0.828125 C 0.140625 -0.878906 0.125 -0.941406 0.125 -1.015625 C 0.125 -1.128906 0.164062 -1.210938 0.25 -1.265625 C 0.34375 -1.328125 0.457031 -1.359375 0.59375 -1.359375 C 0.71875 -1.359375 0.8125 -1.335938 0.875 -1.296875 C 0.9375 -1.253906 0.96875 -1.195312 0.96875 -1.125 C 0.96875 -1.082031 0.953125 -1.046875 0.921875 -1.015625 C 0.890625 -0.992188 0.84375 -0.984375 0.78125 -0.984375 C 0.78125 -1.066406 0.765625 -1.128906 0.734375 -1.171875 C 0.703125 -1.222656 0.644531 -1.25 0.5625 -1.25 C 0.476562 -1.25 0.414062 -1.226562 0.375 -1.1875 C 0.34375 -1.15625 0.328125 -1.109375 0.328125 -1.046875 C 0.328125 -0.984375 0.347656 -0.929688 0.390625 -0.890625 C 0.441406 -0.859375 0.523438 -0.820312 0.640625 -0.78125 C 0.734375 -0.75 0.804688 -0.710938 0.859375 -0.671875 C 0.910156 -0.640625 0.945312 -0.597656 0.96875 -0.546875 C 1 -0.492188 1.015625 -0.4375 1.015625 -0.375 C 1.015625 -0.238281 0.96875 -0.132812 0.875 -0.0625 C 0.789062 0 0.675781 0.03125 0.53125 0.03125 Z "/>
</g>
<g id="glyph-0-3">
<path d="M 0.59375 0.03125 C 0.46875 0.03125 0.375 0.00390625 0.3125 -0.046875 C 0.257812 -0.109375 0.234375 -0.210938 0.234375 -0.359375 L 0.234375 -1.203125 L 0.046875 -1.203125 L 0.046875 -1.296875 C 0.078125 -1.296875 0.109375 -1.300781 0.140625 -1.3125 C 0.179688 -1.320312 0.21875 -1.34375 0.25 -1.375 C 0.269531 -1.40625 0.289062 -1.441406 0.3125 -1.484375 C 0.332031 -1.523438 0.347656 -1.578125 0.359375 -1.640625 L 0.46875 -1.640625 L 0.46875 -1.34375 L 0.796875 -1.34375 L 0.796875 -1.203125 L 0.46875 -1.203125 L 0.46875 -0.359375 C 0.46875 -0.273438 0.484375 -0.210938 0.515625 -0.171875 C 0.554688 -0.128906 0.601562 -0.109375 0.65625 -0.109375 C 0.6875 -0.109375 0.710938 -0.109375 0.734375 -0.109375 C 0.765625 -0.117188 0.796875 -0.125 0.828125 -0.125 L 0.828125 -0.015625 C 0.804688 -0.00390625 0.769531 0.00390625 0.71875 0.015625 C 0.675781 0.0234375 0.632812 0.03125 0.59375 0.03125 Z "/>
</g>
</g>
</defs>
<g fill="rgb(95.294118%, 54.509804%, 65.882353%)" fill-opacity="1">
<use xlink:href="#glyph-0-0" x="30" y="22.672852"/>
<use xlink:href="#glyph-0-1" x="31" y="22.672852"/>
<use xlink:href="#glyph-0-2" x="32" y="22.672852"/>
<use xlink:href="#glyph-0-1" x="33" y="22.672852"/>
<use xlink:href="#glyph-0-3" x="34" y="22.672852"/>
</g>
</svg>
