<?xml version="1.0" encoding="UTF-8"?>
<svg xmlns="http://www.w3.org/2000/svg" xmlns:xlink="http://www.w3.org/1999/xlink" width="854" height="480" viewBox="0 0 854 480">
<defs>
<g>
<g id="glyph-0-0">
<path d="M 0.953125 0.03125 C 0.710938 0.03125 0.523438 -0.046875 0.390625 -0.203125 C 0.253906 -0.367188 0.1875 -0.59375 0.1875 -0.875 C 0.1875 -1.1875 0.25 -1.421875 0.375 -1.578125 C 0.5 -1.734375 0.679688 -1.8125 0.921875 -1.8125 C 1.140625 -1.8125 1.304688 -1.742188 1.421875 -1.609375 C 1.546875 -1.484375 1.609375 -1.285156 1.609375 -1.015625 L 1.609375 -0.875 L 0.5 -0.875 C 0.507812 -0.625 0.554688 -0.441406 0.640625 -0.328125 C 0.722656 -0.222656 0.84375 -0.171875 1 -0.171875 C 1.113281 -0.171875 1.210938 -0.191406 1.296875 -0.234375 C 1.378906 -0.285156 1.441406 -0.34375 1.484375 -0.40625 C 1.492188 -0.40625 1.503906 -0.394531 1.515625 -0.375 C 1.535156 -0.351562 1.546875 -0.328125 1.546875 -0.296875 C 1.546875 -0.253906 1.523438 -0.207031 1.484375 -0.15625 C 1.441406 -0.101562 1.375 -0.0546875 1.28125 -0.015625 C 1.195312 0.015625 1.085938 0.03125 0.953125 0.03125 Z M 1.28125 -1.046875 C 1.28125 -1.222656 1.25 -1.363281 1.1875 -1.46875 C 1.132812 -1.582031 1.046875 -1.640625 0.921875 -1.640625 C 0.796875 -1.640625 0.695312 -1.585938 0.625 -1.484375 C 0.5625 -1.378906 0.523438 -1.234375 0.515625 -1.046875 Z "/>
</g>
<g id="glyph-0-1">
<path d="M 0.109375 0 L 0.109375 -0.140625 L 0.125 -0.140625 C 0.195312 -0.140625 0.257812 -0.148438 0.3125 -0.171875 C 0.363281 -0.203125 0.390625 -0.269531 0.390625 -0.375 L 0.390625 -1.421875 C 0.390625 -1.515625 0.363281 -1.570312 0.3125 -1.59375 C 0.257812 -1.625 0.195312 -1.640625 0.125 -1.640625 L 0.109375 -1.640625 L 0.109375 -1.78125 L 0.625 -1.78125 L 0.6875 -1.453125 L 0.703125 -1.453125 C 0.734375 -1.515625 0.765625 -1.570312 0.796875 -1.625 C 0.828125 -1.6875 0.867188 -1.734375 0.921875 -1.765625 C 0.984375 -1.796875 1.0625 -1.8125 1.15625 -1.8125 C 1.28125 -1.8125 1.367188 -1.789062 1.421875 -1.75 C 1.484375 -1.707031 1.515625 -1.648438 1.515625 -1.578125 C 1.515625 -1.503906 1.488281 -1.445312 1.4375 -1.40625 C 1.394531 -1.363281 1.316406 -1.34375 1.203125 -1.34375 C 1.203125 -1.425781 1.1875 -1.488281 1.15625 -1.53125 C 1.132812 -1.570312 1.09375 -1.59375 1.03125 -1.59375 C 0.96875 -1.59375 0.914062 -1.566406 0.875 -1.515625 C 0.832031 -1.472656 0.796875 -1.410156 0.765625 -1.328125 C 0.742188 -1.253906 0.726562 -1.175781 0.71875 -1.09375 C 0.707031 -1.019531 0.703125 -0.953125 0.703125 -0.890625 L 0.703125 -0.359375 C 0.703125 -0.265625 0.726562 -0.203125 0.78125 -0.171875 C 0.84375 -0.148438 0.910156 -0.140625 0.984375 -0.140625 L 1.078125 -0.140625 L 1.078125 0 Z "/>
</g>
<g id="glyph-0-2">
<path d="M 0.953125 0.03125 C 0.710938 0.03125 0.523438 -0.0390625 0.390625 -0.1875 C 0.253906 -0.34375 0.1875 -0.578125 0.1875 -0.890625 C 0.1875 -1.203125 0.25 -1.429688 0.375 -1.578125 C 0.507812 -1.734375 0.707031 -1.8125 0.96875 -1.8125 C 1.207031 -1.8125 1.394531 -1.734375 1.53125 -1.578125 C 1.664062 -1.429688 1.734375 -1.203125 1.734375 -0.890625 C 1.734375 -0.578125 1.664062 -0.34375 1.53125 -0.1875 C 1.40625 -0.0390625 1.210938 0.03125 0.953125 0.03125 Z M 0.96875 -0.140625 C 1.132812 -0.140625 1.25 -0.203125 1.3125 -0.328125 C 1.382812 -0.453125 1.421875 -0.640625 1.421875 -0.890625 C 1.421875 -1.140625 1.382812 -1.328125 1.3125 -1.453125 C 1.238281 -1.578125 1.117188 -1.640625 0.953125 -1.640625 C 0.785156 -1.640625 0.664062 -1.578125 0.59375 -1.453125 C 0.53125 -1.328125 0.5 -1.140625 0.5 -0.890625 C 0.5 -0.640625 0.535156 -0.453125 0.609375 -0.328125 C 0.679688 -0.203125 0.800781 -0.140625 0.96875 -0.140625 Z "/>
</g>
</g>
</defs>
<g fill="rgb(95.294118%, 54.509804%, 65.882353%)" fill-opacity="1">
<use xlink:href="#glyph-0-0" x="30" y="23.5625"/>
<use xlink:href="#glyph-0-1" x="32" y="23.5625"/>
<use xlink:href="#glyph-0-1" x="34" y="23.5625"/>
<use xlink:href="#glyph-0-2" x="36" y="23.5625"/>
<use xlink:href="#glyph-0-1" x="38" y="23.5625"/>
</g>
</svg>
