<?xml version="1.0" encoding="UTF-8"?>
<svg xmlns="http://www.w3.org/2000/svg" xmlns:xlink="http://www.w3.org/1999/xlink" width="854" height="480" viewBox="0 0 854 480">
<defs>
<g>
<g id="glyph-0-0">
<path d="M 0.015625 0 L 0.015625 -0.140625 L 0.046875 -0.140625 C 0.128906 -0.140625 0.191406 -0.15625 0.234375 -0.1875 C 0.285156 -0.21875 0.34375 -0.273438 0.40625 -0.359375 L 0.828125 -0.890625 L 0.40625 -1.46875 C 0.363281 -1.519531 0.316406 -1.5625 0.265625 -1.59375 C 0.222656 -1.625 0.175781 -1.640625 0.125 -1.640625 L 0.078125 -1.640625 L 0.078125 -1.78125 L 0.921875 -1.78125 L 0.921875 -1.640625 C 0.835938 -1.640625 0.78125 -1.628906 0.75 -1.609375 C 0.726562 -1.597656 0.71875 -1.578125 0.71875 -1.546875 C 0.71875 -1.523438 0.722656 -1.503906 0.734375 -1.484375 C 0.753906 -1.460938 0.773438 -1.429688 0.796875 -1.390625 L 1.015625 -1.09375 L 1.1875 -1.34375 C 1.21875 -1.382812 1.238281 -1.421875 1.25 -1.453125 C 1.269531 -1.484375 1.28125 -1.515625 1.28125 -1.546875 C 1.28125 -1.585938 1.257812 -1.613281 1.21875 -1.625 C 1.1875 -1.632812 1.144531 -1.640625 1.09375 -1.640625 L 1.09375 -1.78125 L 1.8125 -1.78125 L 1.8125 -1.640625 L 1.78125 -1.640625 C 1.71875 -1.640625 1.660156 -1.625 1.609375 -1.59375 C 1.566406 -1.570312 1.515625 -1.519531 1.453125 -1.4375 L 1.109375 -0.96875 L 1.59375 -0.3125 C 1.644531 -0.25 1.691406 -0.203125 1.734375 -0.171875 C 1.773438 -0.148438 1.816406 -0.140625 1.859375 -0.140625 L 1.90625 -0.140625 L 1.90625 0 L 1.046875 0 L 1.046875 -0.140625 L 1.0625 -0.140625 C 1.195312 -0.140625 1.265625 -0.175781 1.265625 -0.25 C 1.265625 -0.269531 1.253906 -0.296875 1.234375 -0.328125 C 1.222656 -0.359375 1.191406 -0.410156 1.140625 -0.484375 L 0.921875 -0.78125 L 0.6875 -0.453125 C 0.664062 -0.421875 0.644531 -0.382812 0.625 -0.34375 C 0.601562 -0.3125 0.59375 -0.28125 0.59375 -0.25 C 0.59375 -0.207031 0.609375 -0.175781 0.640625 -0.15625 C 0.671875 -0.144531 0.722656 -0.140625 0.796875 -0.140625 L 0.8125 -0.140625 L 0.8125 0 Z "/>
</g>
<g id="glyph-0-1">
<path d="M 0.671875 -1.265625 C 0.472656 -1.265625 0.332031 -1.332031 0.25 -1.46875 C 0.164062 -1.601562 0.125 -1.78125 0.125 -2 C 0.125 -2.226562 0.164062 -2.410156 0.25 -2.546875 C 0.332031 -2.679688 0.472656 -2.75 0.671875 -2.75 C 0.847656 -2.75 0.984375 -2.679688 1.078125 -2.546875 C 1.171875 -2.410156 1.21875 -2.226562 1.21875 -2 C 1.21875 -1.78125 1.171875 -1.601562 1.078125 -1.46875 C 0.984375 -1.332031 0.847656 -1.265625 0.671875 -1.265625 Z M 0.671875 -1.40625 C 0.765625 -1.40625 0.828125 -1.457031 0.859375 -1.5625 C 0.890625 -1.675781 0.90625 -1.820312 0.90625 -2 C 0.90625 -2.1875 0.890625 -2.332031 0.859375 -2.4375 C 0.828125 -2.550781 0.765625 -2.609375 0.671875 -2.609375 C 0.578125 -2.609375 0.507812 -2.550781 0.46875 -2.4375 C 0.4375 -2.332031 0.421875 -2.1875 0.421875 -2 C 0.421875 -1.820312 0.4375 -1.675781 0.46875 -1.5625 C 0.507812 -1.457031 0.578125 -1.40625 0.671875 -1.40625 Z "/>
</g>
<g id="glyph-0-2">
<path d="M 0.421875 -0.953125 C 0.359375 -0.953125 0.304688 -0.96875 0.265625 -1 C 0.222656 -1.039062 0.203125 -1.101562 0.203125 -1.1875 C 0.203125 -1.269531 0.222656 -1.328125 0.265625 -1.359375 C 0.304688 -1.390625 0.359375 -1.40625 0.421875 -1.40625 C 0.472656 -1.40625 0.519531 -1.390625 0.5625 -1.359375 C 0.601562 -1.328125 0.625 -1.269531 0.625 -1.1875 C 0.625 -1.101562 0.601562 -1.039062 0.5625 -1 C 0.519531 -0.96875 0.472656 -0.953125 0.421875 -0.953125 Z "/>
</g>
<g id="glyph-0-3">
<path d="M 0.9375 0.03125 C 0.789062 0.03125 0.660156 0 0.546875 -0.0625 C 0.429688 -0.125 0.34375 -0.222656 0.28125 -0.359375 C 0.21875 -0.492188 0.1875 -0.664062 0.1875 -0.875 C 0.1875 -1.113281 0.21875 -1.300781 0.28125 -1.4375 C 0.34375 -1.570312 0.429688 -1.664062 0.546875 -1.71875 C 0.660156 -1.78125 0.785156 -1.8125 0.921875 -1.8125 C 1.015625 -1.8125 1.101562 -1.800781 1.1875 -1.78125 C 1.28125 -1.757812 1.351562 -1.722656 1.40625 -1.671875 C 1.46875 -1.617188 1.5 -1.554688 1.5 -1.484375 C 1.5 -1.398438 1.472656 -1.34375 1.421875 -1.3125 C 1.378906 -1.28125 1.304688 -1.265625 1.203125 -1.265625 C 1.203125 -1.367188 1.179688 -1.457031 1.140625 -1.53125 C 1.109375 -1.613281 1.035156 -1.65625 0.921875 -1.65625 C 0.835938 -1.65625 0.765625 -1.628906 0.703125 -1.578125 C 0.640625 -1.535156 0.585938 -1.457031 0.546875 -1.34375 C 0.515625 -1.238281 0.5 -1.085938 0.5 -0.890625 C 0.5 -0.648438 0.535156 -0.472656 0.609375 -0.359375 C 0.691406 -0.242188 0.828125 -0.1875 1.015625 -0.1875 C 1.117188 -0.1875 1.207031 -0.207031 1.28125 -0.25 C 1.351562 -0.289062 1.410156 -0.347656 1.453125 -0.421875 C 1.484375 -0.390625 1.5 -0.34375 1.5 -0.28125 C 1.5 -0.226562 1.476562 -0.175781 1.4375 -0.125 C 1.394531 -0.0820312 1.332031 -0.046875 1.25 -0.015625 C 1.164062 0.015625 1.0625 0.03125 0.9375 0.03125 Z "/>
</g>
<g id="glyph-0-4">
<path d="M 0.671875 0.34375 C 0.472656 0.34375 0.332031 0.273438 0.25 0.140625 C 0.164062 0.00390625 0.125 -0.171875 0.125 -0.390625 C 0.125 -0.617188 0.164062 -0.800781 0.25 -0.9375 C 0.332031 -1.070312 0.472656 -1.140625 0.671875 -1.140625 C 0.847656 -1.140625 0.984375 -1.070312 1.078125 -0.9375 C 1.171875 -0.800781 1.21875 -0.617188 1.21875 -0.390625 C 1.21875 -0.171875 1.171875 0.00390625 1.078125 0.140625 C 0.984375 0.273438 0.847656 0.34375 0.671875 0.34375 Z M 0.671875 0.203125 C 0.765625 0.203125 0.828125 0.144531 0.859375 0.03125 C 0.890625 -0.0703125 0.90625 -0.210938 0.90625 -0.390625 C 0.90625 -0.578125 0.890625 -0.722656 0.859375 -0.828125 C 0.828125 -0.941406 0.765625 -1 0.671875 -1 C 0.578125 -1 0.507812 -0.941406 0.46875 -0.828125 C 0.4375 -0.722656 0.421875 -0.578125 0.421875 -0.390625 C 0.421875 -0.210938 0.4375 -0.0703125 0.46875 0.03125 C 0.507812 0.144531 0.578125 0.203125 0.671875 0.203125 Z "/>
</g>
</g>
</defs>
<g fill="rgb(97.647059%, 88.627451%, 68.627451%)" fill-opacity="1">
<use xlink:href="#glyph-0-0" x="30" y="23.5625"/>
<use xlink:href="#glyph-0-1" x="32" y="23.5625"/>
<use xlink:href="#glyph-0-2" x="33" y="23.5625"/>
<use xlink:href="#glyph-0-3" x="34" y="23.5625"/>
<use xlink:href="#glyph-0-4" x="36" y="23.5625"/>
</g>
</svg>
