<?xml version="1.0" encoding="UTF-8"?>
<svg xmlns="http://www.w3.org/2000/svg" xmlns:xlink="http://www.w3.org/1999/xlink" width="854" height="480" viewBox="0 0 854 480">
<defs>
<g>
<g id="glyph-0-0">
<path d="M 0.0625 0 L 0.0625 -0.328125 L 0.125 -0.328125 C 0.269531 -0.328125 0.382812 -0.351562 0.46875 -0.40625 C 0.5625 -0.457031 0.664062 -0.5625 0.78125 -0.71875 L 1.5625 -1.640625 L 0.78125 -2.625 C 0.613281 -2.84375 0.441406 -2.953125 0.265625 -2.953125 L 0.1875 -2.953125 L 0.1875 -3.28125 L 2.109375 -3.28125 L 2.109375 -2.953125 L 2.078125 -2.953125 C 1.941406 -2.953125 1.847656 -2.929688 1.796875 -2.890625 C 1.753906 -2.859375 1.734375 -2.820312 1.734375 -2.78125 C 1.734375 -2.707031 1.78125 -2.613281 1.875 -2.5 L 2.21875 -2.078125 L 2.5 -2.421875 C 2.601562 -2.546875 2.65625 -2.660156 2.65625 -2.765625 C 2.65625 -2.835938 2.625 -2.882812 2.5625 -2.90625 C 2.507812 -2.9375 2.4375 -2.953125 2.34375 -2.953125 L 2.328125 -2.953125 L 2.328125 -3.28125 L 3.734375 -3.28125 L 3.734375 -2.953125 L 3.6875 -2.953125 C 3.5625 -2.953125 3.457031 -2.925781 3.375 -2.875 C 3.300781 -2.820312 3.195312 -2.71875 3.0625 -2.5625 L 2.4375 -1.796875 L 3.328125 -0.640625 C 3.421875 -0.523438 3.503906 -0.441406 3.578125 -0.390625 C 3.660156 -0.347656 3.742188 -0.328125 3.828125 -0.328125 L 3.90625 -0.328125 L 3.90625 0 L 1.96875 0 L 1.96875 -0.328125 L 1.984375 -0.328125 C 2.234375 -0.328125 2.359375 -0.394531 2.359375 -0.53125 C 2.359375 -0.570312 2.34375 -0.617188 2.3125 -0.671875 C 2.289062 -0.734375 2.226562 -0.828125 2.125 -0.953125 L 1.78125 -1.375 L 1.34375 -0.84375 C 1.3125 -0.789062 1.28125 -0.738281 1.25 -0.6875 C 1.226562 -0.632812 1.21875 -0.582031 1.21875 -0.53125 C 1.21875 -0.46875 1.25 -0.414062 1.3125 -0.375 C 1.375 -0.34375 1.46875 -0.328125 1.59375 -0.328125 L 1.625 -0.328125 L 1.625 0 Z "/>
</g>
<g id="glyph-0-1">
<path d="M 0.21875 -2.359375 L 0.21875 -2.796875 L 0.890625 -3.359375 C 1.109375 -3.546875 1.25 -3.710938 1.3125 -3.859375 C 1.382812 -4.015625 1.421875 -4.175781 1.421875 -4.34375 C 1.421875 -4.476562 1.398438 -4.582031 1.359375 -4.65625 C 1.316406 -4.726562 1.242188 -4.765625 1.140625 -4.765625 C 1.046875 -4.765625 0.976562 -4.734375 0.9375 -4.671875 C 0.894531 -4.609375 0.863281 -4.53125 0.84375 -4.4375 C 0.832031 -4.34375 0.828125 -4.25 0.828125 -4.15625 C 0.691406 -4.15625 0.566406 -4.179688 0.453125 -4.234375 C 0.335938 -4.296875 0.28125 -4.394531 0.28125 -4.53125 C 0.28125 -4.675781 0.351562 -4.796875 0.5 -4.890625 C 0.644531 -4.992188 0.859375 -5.046875 1.140625 -5.046875 C 1.472656 -5.046875 1.710938 -4.984375 1.859375 -4.859375 C 2.003906 -4.742188 2.078125 -4.585938 2.078125 -4.390625 C 2.078125 -4.265625 2.050781 -4.148438 2 -4.046875 C 1.957031 -3.941406 1.875 -3.828125 1.75 -3.703125 C 1.625 -3.578125 1.441406 -3.421875 1.203125 -3.234375 L 0.703125 -2.84375 L 1.6875 -2.84375 C 1.769531 -2.84375 1.828125 -2.859375 1.859375 -2.890625 C 1.898438 -2.929688 1.925781 -2.984375 1.9375 -3.046875 L 1.96875 -3.203125 L 2.1875 -3.203125 L 2.171875 -2.359375 Z "/>
</g>
</g>
</defs>
<g fill="rgb(79.607843%, 65.098039%, 96.862745%)" fill-opacity="1">
<use xlink:href="#glyph-0-0" x="30" y="26.532227"/>
<use xlink:href="#glyph-0-1" x="34" y="26.532227"/>
</g>
</svg>
