<?xml version="1.0" encoding="UTF-8"?>
<svg xmlns="http://www.w3.org/2000/svg" xmlns:xlink="http://www.w3.org/1999/xlink" width="854" height="480" viewBox="0 0 854 480">
<defs>
<g>
<g id="glyph-0-0">
<path d="M 0.859375 0.03125 C 0.734375 0.03125 0.613281 0.00390625 0.5 -0.046875 C 0.394531 -0.109375 0.3125 -0.203125 0.25 -0.328125 C 0.195312 -0.453125 0.171875 -0.613281 0.171875 -0.8125 C 0.171875 -1.03125 0.195312 -1.203125 0.25 -1.328125 C 0.3125 -1.453125 0.394531 -1.539062 0.5 -1.59375 C 0.601562 -1.644531 0.71875 -1.671875 0.84375 -1.671875 C 0.9375 -1.671875 1.019531 -1.660156 1.09375 -1.640625 C 1.175781 -1.617188 1.242188 -1.582031 1.296875 -1.53125 C 1.359375 -1.488281 1.390625 -1.429688 1.390625 -1.359375 C 1.390625 -1.285156 1.363281 -1.234375 1.3125 -1.203125 C 1.269531 -1.179688 1.203125 -1.171875 1.109375 -1.171875 C 1.109375 -1.265625 1.085938 -1.34375 1.046875 -1.40625 C 1.015625 -1.476562 0.945312 -1.515625 0.84375 -1.515625 C 0.769531 -1.515625 0.703125 -1.492188 0.640625 -1.453125 C 0.585938 -1.410156 0.546875 -1.335938 0.515625 -1.234375 C 0.484375 -1.140625 0.46875 -1 0.46875 -0.8125 C 0.46875 -0.59375 0.503906 -0.429688 0.578125 -0.328125 C 0.648438 -0.222656 0.765625 -0.171875 0.921875 -0.171875 C 1.023438 -0.171875 1.109375 -0.1875 1.171875 -0.21875 C 1.242188 -0.257812 1.296875 -0.3125 1.328125 -0.375 C 1.367188 -0.351562 1.390625 -0.316406 1.390625 -0.265625 C 1.390625 -0.210938 1.367188 -0.164062 1.328125 -0.125 C 1.285156 -0.0820312 1.226562 -0.046875 1.15625 -0.015625 C 1.082031 0.015625 0.984375 0.03125 0.859375 0.03125 Z "/>
</g>
<g id="glyph-0-1">
<path d="M 0.609375 0.328125 C 0.441406 0.328125 0.316406 0.257812 0.234375 0.125 C 0.148438 0 0.109375 -0.160156 0.109375 -0.359375 C 0.109375 -0.566406 0.148438 -0.734375 0.234375 -0.859375 C 0.316406 -0.984375 0.441406 -1.046875 0.609375 -1.046875 C 0.785156 -1.046875 0.910156 -0.984375 0.984375 -0.859375 C 1.066406 -0.734375 1.109375 -0.566406 1.109375 -0.359375 C 1.109375 -0.160156 1.066406 0 0.984375 0.125 C 0.910156 0.257812 0.785156 0.328125 0.609375 0.328125 Z M 0.609375 0.1875 C 0.691406 0.1875 0.75 0.132812 0.78125 0.03125 C 0.820312 -0.0625 0.84375 -0.191406 0.84375 -0.359375 C 0.84375 -0.523438 0.820312 -0.65625 0.78125 -0.75 C 0.75 -0.851562 0.691406 -0.90625 0.609375 -0.90625 C 0.523438 -0.90625 0.46875 -0.851562 0.4375 -0.75 C 0.40625 -0.65625 0.390625 -0.523438 0.390625 -0.359375 C 0.390625 -0.191406 0.40625 -0.0625 0.4375 0.03125 C 0.46875 0.132812 0.523438 0.1875 0.609375 0.1875 Z "/>
</g>
<g id="glyph-0-2">
</g>
<g id="glyph-0-3">
<path d="M 0.765625 -0.4375 L 0.765625 -1 L 0.203125 -1 L 0.203125 -1.1875 L 0.765625 -1.1875 L 0.765625 -1.75 L 0.953125 -1.75 L 0.953125 -1.1875 L 1.515625 -1.1875 L 1.515625 -1 L 0.953125 -1 L 0.953125 -0.4375 Z "/>
</g>
<g id="glyph-0-4">
<path d="M 0.1875 0.296875 L 0.1875 0.1875 L 0.359375 0.1875 C 0.390625 0.1875 0.414062 0.179688 0.4375 0.171875 C 0.46875 0.160156 0.484375 0.128906 0.484375 0.078125 L 0.484375 -0.796875 C 0.421875 -0.742188 0.375 -0.707031 0.34375 -0.6875 C 0.320312 -0.675781 0.285156 -0.671875 0.234375 -0.671875 C 0.203125 -0.671875 0.175781 -0.679688 0.15625 -0.703125 C 0.132812 -0.722656 0.125 -0.753906 0.125 -0.796875 C 0.15625 -0.796875 0.1875 -0.796875 0.21875 -0.796875 C 0.25 -0.804688 0.289062 -0.820312 0.34375 -0.84375 C 0.394531 -0.875 0.46875 -0.925781 0.5625 -1 L 0.609375 -1.03125 L 0.765625 -1.03125 L 0.765625 0.078125 C 0.765625 0.128906 0.773438 0.160156 0.796875 0.171875 C 0.828125 0.179688 0.859375 0.1875 0.890625 0.1875 L 1.03125 0.1875 L 1.03125 0.296875 Z "/>
</g>
<g id="glyph-0-5">
<path d="M 0.015625 0 L 0.015625 -0.125 L 0.046875 -0.125 C 0.117188 -0.125 0.175781 -0.140625 0.21875 -0.171875 C 0.257812 -0.203125 0.3125 -0.253906 0.375 -0.328125 L 0.765625 -0.828125 L 0.375 -1.34375 C 0.332031 -1.40625 0.289062 -1.445312 0.25 -1.46875 C 0.207031 -1.5 0.160156 -1.515625 0.109375 -1.515625 L 0.078125 -1.515625 L 0.078125 -1.640625 L 0.84375 -1.640625 L 0.84375 -1.515625 C 0.769531 -1.515625 0.722656 -1.503906 0.703125 -1.484375 C 0.679688 -1.460938 0.671875 -1.441406 0.671875 -1.421875 C 0.671875 -1.398438 0.675781 -1.378906 0.6875 -1.359375 C 0.695312 -1.335938 0.710938 -1.3125 0.734375 -1.28125 L 0.9375 -1 L 1.09375 -1.234375 C 1.125 -1.273438 1.144531 -1.3125 1.15625 -1.34375 C 1.164062 -1.375 1.171875 -1.398438 1.171875 -1.421875 C 1.171875 -1.460938 1.15625 -1.488281 1.125 -1.5 C 1.09375 -1.507812 1.054688 -1.515625 1.015625 -1.515625 L 1 -1.515625 L 1 -1.640625 L 1.671875 -1.640625 L 1.671875 -1.515625 L 1.640625 -1.515625 C 1.585938 -1.515625 1.535156 -1.5 1.484375 -1.46875 C 1.441406 -1.445312 1.390625 -1.394531 1.328125 -1.3125 L 1.015625 -0.890625 L 1.46875 -0.296875 C 1.507812 -0.234375 1.550781 -0.1875 1.59375 -0.15625 C 1.632812 -0.132812 1.675781 -0.125 1.71875 -0.125 L 1.75 -0.125 L 1.75 0 L 0.96875 0 L 0.96875 -0.125 L 0.984375 -0.125 C 1.097656 -0.125 1.15625 -0.160156 1.15625 -0.234375 C 1.15625 -0.253906 1.148438 -0.273438 1.140625 -0.296875 C 1.128906 -0.328125 1.097656 -0.375 1.046875 -0.4375 L 0.84375 -0.71875 L 0.625 -0.421875 C 0.601562 -0.390625 0.582031 -0.351562 0.5625 -0.3125 C 0.550781 -0.28125 0.546875 -0.25 0.546875 -0.21875 C 0.546875 -0.1875 0.5625 -0.160156 0.59375 -0.140625 C 0.625 -0.128906 0.671875 -0.125 0.734375 -0.125 L 0.75 -0.125 L 0.75 0 Z "/>
</g>
</g>
</defs>
<g fill="rgb(97.647059%, 88.627451%, 68.627451%)" fill-opacity="1">
<use xlink:href="#glyph-0-0" x="30" y="23.266602"/>
<use xlink:href="#glyph-0-1" x="32" y="23.266602"/>
<use xlink:href="#glyph-0-2" x="33" y="23.266602"/>
<use xlink:href="#glyph-0-3" x="34" y="23.266602"/>
<use xlink:href="#glyph-0-2" x="36" y="23.266602"/>
<use xlink:href="#glyph-0-0" x="37" y="23.266602"/>
<use xlink:href="#glyph-0-4" x="39" y="23.266602"/>
<use xlink:href="#glyph-0-5" x="40" y="23.266602"/>
</g>
</svg>
