<?xml version="1.0" encoding="UTF-8"?>
<svg xmlns="http://www.w3.org/2000/svg" xmlns:xlink="http://www.w3.org/1999/xlink" width="854" height="480" viewBox="0 0 854 480">
<defs>
<g>
<g id="glyph-0-0">
<path d="M 0.859375 0.03125 C 0.734375 0.03125 0.613281 0.00390625 0.5 -0.046875 C 0.394531 -0.109375 0.3125 -0.203125 0.25 -0.328125 C 0.195312 -0.453125 0.171875 -0.613281 0.171875 -0.8125 C 0.171875 -1.03125 0.195312 -1.203125 0.25 -1.328125 C 0.3125 -1.453125 0.394531 -1.539062 0.5 -1.59375 C 0.601562 -1.644531 0.71875 -1.671875 0.84375 -1.671875 C 0.9375 -1.671875 1.019531 -1.660156 1.09375 -1.640625 C 1.175781 -1.617188 1.242188 -1.582031 1.296875 -1.53125 C 1.359375 -1.488281 1.390625 -1.429688 1.390625 -1.359375 C 1.390625 -1.285156 1.363281 -1.234375 1.3125 -1.203125 C 1.269531 -1.179688 1.203125 -1.171875 1.109375 -1.171875 C 1.109375 -1.265625 1.085938 -1.34375 1.046875 -1.40625 C 1.015625 -1.476562 0.945312 -1.515625 0.84375 -1.515625 C 0.769531 -1.515625 0.703125 -1.492188 0.640625 -1.453125 C 0.585938 -1.410156 0.546875 -1.335938 0.515625 -1.234375 C 0.484375 -1.140625 0.46875 -1 0.46875 -0.8125 C 0.46875 -0.59375 0.503906 -0.429688 0.578125 -0.328125 C 0.648438 -0.222656 0.765625 -0.171875 0.921875 -0.171875 C 1.023438 -0.171875 1.109375 -0.1875 1.171875 -0.21875 C 1.242188 -0.257812 1.296875 -0.3125 1.328125 -0.375 C 1.367188 -0.351562 1.390625 -0.316406 1.390625 -0.265625 C 1.390625 -0.210938 1.367188 -0.164062 1.328125 -0.125 C 1.285156 -0.0820312 1.226562 -0.046875 1.15625 -0.015625 C 1.082031 0.015625 0.984375 0.03125 0.859375 0.03125 Z "/>
</g>
<g id="glyph-0-1">
<path d="M 0.609375 0.328125 C 0.441406 0.328125 0.316406 0.257812 0.234375 0.125 C 0.148438 0 0.109375 -0.160156 0.109375 -0.359375 C 0.109375 -0.566406 0.148438 -0.734375 0.234375 -0.859375 C 0.316406 -0.984375 0.441406 -1.046875 0.609375 -1.046875 C 0.785156 -1.046875 0.910156 -0.984375 0.984375 -0.859375 C 1.066406 -0.734375 1.109375 -0.566406 1.109375 -0.359375 C 1.109375 -0.160156 1.066406 0 0.984375 0.125 C 0.910156 0.257812 0.785156 0.328125 0.609375 0.328125 Z M 0.609375 0.1875 C 0.691406 0.1875 0.75 0.132812 0.78125 0.03125 C 0.820312 -0.0625 0.84375 -0.191406 0.84375 -0.359375 C 0.84375 -0.523438 0.820312 -0.65625 0.78125 -0.75 C 0.75 -0.851562 0.691406 -0.90625 0.609375 -0.90625 C 0.523438 -0.90625 0.46875 -0.851562 0.4375 -0.75 C 0.40625 -0.65625 0.390625 -0.523438 0.390625 -0.359375 C 0.390625 -0.191406 0.40625 -0.0625 0.4375 0.03125 C 0.46875 0.132812 0.523438 0.1875 0.609375 0.1875 Z "/>
</g>
</g>
</defs>
<g fill="rgb(97.647059%, 88.627451%, 68.627451%)" fill-opacity="1">
<use xlink:href="#glyph-0-0" x="30" y="23.266602"/>
<use xlink:href="#glyph-0-1" x="32" y="23.266602"/>
</g>
</svg>
