<?xml version="1.0" encoding="UTF-8"?>
<svg xmlns="http://www.w3.org/2000/svg" xmlns:xlink="http://www.w3.org/1999/xlink" width="854" height="480" viewBox="0 0 854 480">
<defs>
<g>
<g id="glyph-0-0">
<path d="M 0.71875 0.03125 C 0.53125 0.03125 0.390625 -0.03125 0.296875 -0.15625 C 0.203125 -0.28125 0.15625 -0.476562 0.15625 -0.75 C 0.15625 -1.007812 0.203125 -1.203125 0.296875 -1.328125 C 0.390625 -1.453125 0.53125 -1.515625 0.71875 -1.515625 C 0.820312 -1.515625 0.90625 -1.488281 0.96875 -1.4375 C 1.039062 -1.394531 1.097656 -1.34375 1.140625 -1.28125 L 1.15625 -1.28125 C 1.15625 -1.320312 1.148438 -1.367188 1.140625 -1.421875 C 1.140625 -1.484375 1.140625 -1.535156 1.140625 -1.578125 L 1.140625 -1.8125 C 1.140625 -1.894531 1.117188 -1.945312 1.078125 -1.96875 C 1.035156 -1.988281 0.984375 -2 0.921875 -2 L 0.890625 -2 L 0.890625 -2.109375 L 1.40625 -2.109375 L 1.40625 -0.3125 C 1.40625 -0.226562 1.425781 -0.171875 1.46875 -0.140625 C 1.519531 -0.117188 1.578125 -0.109375 1.640625 -0.109375 L 1.65625 -0.109375 L 1.65625 0 L 1.1875 0 L 1.15625 -0.25 L 1.140625 -0.25 C 1.097656 -0.164062 1.046875 -0.0976562 0.984375 -0.046875 C 0.921875 0.00390625 0.832031 0.03125 0.71875 0.03125 Z M 0.765625 -0.15625 C 0.910156 -0.15625 1.007812 -0.203125 1.0625 -0.296875 C 1.113281 -0.390625 1.140625 -0.539062 1.140625 -0.75 C 1.140625 -0.9375 1.113281 -1.082031 1.0625 -1.1875 C 1.007812 -1.289062 0.910156 -1.34375 0.765625 -1.34375 C 0.640625 -1.34375 0.550781 -1.289062 0.5 -1.1875 C 0.445312 -1.082031 0.421875 -0.929688 0.421875 -0.734375 C 0.421875 -0.535156 0.445312 -0.390625 0.5 -0.296875 C 0.550781 -0.203125 0.640625 -0.15625 0.765625 -0.15625 Z "/>
</g>
<g id="glyph-0-1">
<path d="M 0.453125 -1.765625 C 0.398438 -1.765625 0.359375 -1.773438 0.328125 -1.796875 C 0.304688 -1.828125 0.296875 -1.875 0.296875 -1.9375 C 0.296875 -2 0.304688 -2.039062 0.328125 -2.0625 C 0.359375 -2.09375 0.398438 -2.109375 0.453125 -2.109375 C 0.492188 -2.109375 0.53125 -2.09375 0.5625 -2.0625 C 0.59375 -2.039062 0.609375 -2 0.609375 -1.9375 C 0.609375 -1.875 0.59375 -1.828125 0.5625 -1.796875 C 0.53125 -1.773438 0.492188 -1.765625 0.453125 -1.765625 Z M 0.0625 0 L 0.0625 -0.109375 L 0.09375 -0.109375 C 0.15625 -0.109375 0.207031 -0.117188 0.25 -0.140625 C 0.300781 -0.171875 0.328125 -0.222656 0.328125 -0.296875 L 0.328125 -1.1875 C 0.328125 -1.269531 0.300781 -1.320312 0.25 -1.34375 C 0.207031 -1.363281 0.15625 -1.375 0.09375 -1.375 L 0.09375 -1.484375 L 0.59375 -1.484375 L 0.59375 -0.3125 C 0.59375 -0.226562 0.613281 -0.171875 0.65625 -0.140625 C 0.695312 -0.117188 0.75 -0.109375 0.8125 -0.109375 L 0.859375 -0.109375 L 0.859375 0 Z "/>
</g>
<g id="glyph-0-2">
<path d="M 0.09375 0 L 0.09375 -0.109375 C 0.15625 -0.109375 0.207031 -0.117188 0.25 -0.140625 C 0.300781 -0.171875 0.328125 -0.226562 0.328125 -0.3125 L 0.328125 -1.1875 C 0.328125 -1.269531 0.300781 -1.320312 0.25 -1.34375 C 0.207031 -1.363281 0.15625 -1.375 0.09375 -1.375 L 0.09375 -1.484375 L 0.515625 -1.484375 L 0.578125 -1.21875 L 0.59375 -1.21875 C 0.613281 -1.269531 0.632812 -1.316406 0.65625 -1.359375 C 0.6875 -1.410156 0.722656 -1.445312 0.765625 -1.46875 C 0.816406 -1.5 0.882812 -1.515625 0.96875 -1.515625 C 1.070312 -1.515625 1.144531 -1.492188 1.1875 -1.453125 C 1.238281 -1.421875 1.265625 -1.375 1.265625 -1.3125 C 1.265625 -1.257812 1.242188 -1.210938 1.203125 -1.171875 C 1.171875 -1.140625 1.109375 -1.125 1.015625 -1.125 C 1.015625 -1.195312 1 -1.25 0.96875 -1.28125 C 0.945312 -1.3125 0.910156 -1.328125 0.859375 -1.328125 C 0.804688 -1.328125 0.757812 -1.304688 0.71875 -1.265625 C 0.6875 -1.234375 0.660156 -1.1875 0.640625 -1.125 C 0.628906 -1.0625 0.617188 -0.992188 0.609375 -0.921875 C 0.597656 -0.859375 0.59375 -0.796875 0.59375 -0.734375 L 0.59375 -0.296875 C 0.59375 -0.222656 0.613281 -0.171875 0.65625 -0.140625 C 0.695312 -0.117188 0.75 -0.109375 0.8125 -0.109375 L 0.890625 -0.109375 L 0.890625 0 Z "/>
</g>
<g id="glyph-0-3">
<path d="M 0.796875 0.03125 C 0.597656 0.03125 0.441406 -0.0351562 0.328125 -0.171875 C 0.210938 -0.304688 0.15625 -0.492188 0.15625 -0.734375 C 0.15625 -0.992188 0.207031 -1.1875 0.3125 -1.3125 C 0.414062 -1.445312 0.566406 -1.515625 0.765625 -1.515625 C 0.953125 -1.515625 1.09375 -1.457031 1.1875 -1.34375 C 1.289062 -1.238281 1.34375 -1.078125 1.34375 -0.859375 L 1.34375 -0.71875 L 0.421875 -0.71875 C 0.421875 -0.519531 0.457031 -0.375 0.53125 -0.28125 C 0.601562 -0.1875 0.707031 -0.140625 0.84375 -0.140625 C 0.9375 -0.140625 1.015625 -0.160156 1.078125 -0.203125 C 1.148438 -0.242188 1.203125 -0.289062 1.234375 -0.34375 C 1.242188 -0.332031 1.253906 -0.316406 1.265625 -0.296875 C 1.273438 -0.285156 1.28125 -0.269531 1.28125 -0.25 C 1.28125 -0.207031 1.265625 -0.164062 1.234375 -0.125 C 1.203125 -0.0820312 1.148438 -0.046875 1.078125 -0.015625 C 1.003906 0.015625 0.910156 0.03125 0.796875 0.03125 Z M 1.0625 -0.875 C 1.0625 -1.019531 1.039062 -1.140625 1 -1.234375 C 0.957031 -1.328125 0.878906 -1.375 0.765625 -1.375 C 0.660156 -1.375 0.578125 -1.328125 0.515625 -1.234375 C 0.460938 -1.148438 0.429688 -1.03125 0.421875 -0.875 Z "/>
</g>
<g id="glyph-0-4">
<path d="M 0.78125 0.03125 C 0.664062 0.03125 0.554688 0.00390625 0.453125 -0.046875 C 0.359375 -0.0976562 0.285156 -0.179688 0.234375 -0.296875 C 0.179688 -0.410156 0.15625 -0.554688 0.15625 -0.734375 C 0.15625 -0.929688 0.179688 -1.085938 0.234375 -1.203125 C 0.285156 -1.316406 0.359375 -1.394531 0.453125 -1.4375 C 0.546875 -1.488281 0.648438 -1.515625 0.765625 -1.515625 C 0.847656 -1.515625 0.925781 -1.503906 1 -1.484375 C 1.070312 -1.460938 1.128906 -1.429688 1.171875 -1.390625 C 1.222656 -1.347656 1.25 -1.296875 1.25 -1.234375 C 1.25 -1.171875 1.226562 -1.125 1.1875 -1.09375 C 1.144531 -1.070312 1.085938 -1.0625 1.015625 -1.0625 C 1.015625 -1.144531 0.992188 -1.21875 0.953125 -1.28125 C 0.921875 -1.34375 0.859375 -1.375 0.765625 -1.375 C 0.703125 -1.375 0.644531 -1.351562 0.59375 -1.3125 C 0.539062 -1.28125 0.5 -1.21875 0.46875 -1.125 C 0.4375 -1.03125 0.421875 -0.898438 0.421875 -0.734375 C 0.421875 -0.535156 0.453125 -0.390625 0.515625 -0.296875 C 0.585938 -0.203125 0.695312 -0.15625 0.84375 -0.15625 C 0.925781 -0.15625 1 -0.171875 1.0625 -0.203125 C 1.132812 -0.242188 1.1875 -0.289062 1.21875 -0.34375 C 1.25 -0.320312 1.265625 -0.285156 1.265625 -0.234375 C 1.265625 -0.191406 1.242188 -0.148438 1.203125 -0.109375 C 1.171875 -0.0664062 1.117188 -0.03125 1.046875 0 C 0.984375 0.0195312 0.894531 0.03125 0.78125 0.03125 Z "/>
</g>
<g id="glyph-0-5">
<path d="M 0.671875 0.03125 C 0.523438 0.03125 0.421875 0 0.359375 -0.0625 C 0.296875 -0.132812 0.265625 -0.25 0.265625 -0.40625 L 0.265625 -1.328125 L 0.046875 -1.328125 L 0.046875 -1.4375 C 0.0859375 -1.4375 0.125 -1.441406 0.15625 -1.453125 C 0.195312 -1.472656 0.234375 -1.5 0.265625 -1.53125 C 0.296875 -1.5625 0.320312 -1.601562 0.34375 -1.65625 C 0.363281 -1.707031 0.378906 -1.765625 0.390625 -1.828125 L 0.53125 -1.828125 L 0.53125 -1.484375 L 0.890625 -1.484375 L 0.890625 -1.328125 L 0.53125 -1.328125 L 0.53125 -0.390625 C 0.53125 -0.296875 0.546875 -0.226562 0.578125 -0.1875 C 0.617188 -0.144531 0.671875 -0.125 0.734375 -0.125 C 0.765625 -0.125 0.796875 -0.125 0.828125 -0.125 C 0.859375 -0.125 0.890625 -0.128906 0.921875 -0.140625 L 0.921875 -0.015625 C 0.890625 -0.00390625 0.847656 0.00390625 0.796875 0.015625 C 0.753906 0.0234375 0.710938 0.03125 0.671875 0.03125 Z "/>
</g>
</g>
</defs>
<g fill="rgb(34.509804%, 35.686275%, 43.921569%)" fill-opacity="1">
<use xlink:href="#glyph-0-0" x="30" y="22.96875"/>
<use xlink:href="#glyph-0-1" x="32" y="22.96875"/>
<use xlink:href="#glyph-0-2" x="33" y="22.96875"/>
<use xlink:href="#glyph-0-3" x="34" y="22.96875"/>
<use xlink:href="#glyph-0-4" x="35" y="22.96875"/>
<use xlink:href="#glyph-0-5" x="36" y="22.96875"/>
</g>
</svg>
