<?xml version="1.0" encoding="UTF-8"?>
<svg xmlns="http://www.w3.org/2000/svg" xmlns:xlink="http://www.w3.org/1999/xlink" width="854" height="480" viewBox="0 0 854 480">
<defs>
<g>
<g id="glyph-0-0">
<path d="M 0.140625 0.703125 C 0.296875 0.703125 0.425781 0.671875 0.53125 0.609375 C 0.644531 0.546875 0.734375 0.457031 0.796875 0.34375 C 0.859375 0.238281 0.910156 0.117188 0.953125 -0.015625 L 0.28125 -1.59375 C 0.25 -1.664062 0.210938 -1.710938 0.171875 -1.734375 C 0.140625 -1.765625 0.09375 -1.78125 0.03125 -1.78125 L 0.015625 -1.78125 L 0.015625 -1.9375 L 0.875 -1.9375 L 0.875 -1.78125 C 0.726562 -1.78125 0.65625 -1.722656 0.65625 -1.609375 C 0.65625 -1.566406 0.664062 -1.519531 0.6875 -1.46875 L 0.953125 -0.828125 C 0.972656 -0.773438 0.992188 -0.710938 1.015625 -0.640625 C 1.035156 -0.578125 1.054688 -0.515625 1.078125 -0.453125 C 1.097656 -0.398438 1.113281 -0.351562 1.125 -0.3125 C 1.132812 -0.382812 1.15625 -0.457031 1.1875 -0.53125 C 1.21875 -0.601562 1.242188 -0.675781 1.265625 -0.75 L 1.5 -1.453125 C 1.519531 -1.503906 1.53125 -1.554688 1.53125 -1.609375 C 1.53125 -1.722656 1.453125 -1.78125 1.296875 -1.78125 L 1.28125 -1.78125 L 1.28125 -1.9375 L 2.046875 -1.9375 L 2.046875 -1.78125 L 2.03125 -1.78125 C 1.957031 -1.78125 1.898438 -1.757812 1.859375 -1.71875 C 1.828125 -1.6875 1.789062 -1.613281 1.75 -1.5 L 1.203125 0.015625 C 1.140625 0.191406 1.078125 0.332031 1.015625 0.4375 C 0.960938 0.550781 0.898438 0.640625 0.828125 0.703125 C 0.753906 0.765625 0.664062 0.804688 0.5625 0.828125 C 0.457031 0.847656 0.328125 0.859375 0.171875 0.859375 L 0.140625 0.859375 Z M 0.53125 -2.234375 C 0.570312 -2.273438 0.613281 -2.328125 0.65625 -2.390625 C 0.707031 -2.453125 0.753906 -2.515625 0.796875 -2.578125 C 0.835938 -2.648438 0.867188 -2.710938 0.890625 -2.765625 L 1.234375 -2.765625 C 1.265625 -2.710938 1.300781 -2.648438 1.34375 -2.578125 C 1.382812 -2.515625 1.425781 -2.453125 1.46875 -2.390625 C 1.519531 -2.328125 1.5625 -2.273438 1.59375 -2.234375 L 1.59375 -2.1875 L 1.453125 -2.1875 C 1.390625 -2.226562 1.320312 -2.273438 1.25 -2.328125 C 1.1875 -2.390625 1.125 -2.453125 1.0625 -2.515625 C 1.007812 -2.453125 0.945312 -2.390625 0.875 -2.328125 C 0.8125 -2.273438 0.742188 -2.226562 0.671875 -2.1875 L 0.53125 -2.1875 Z "/>
</g>
</g>
</defs>
<g fill="rgb(97.647059%, 88.627451%, 68.627451%)" fill-opacity="1">
<use xlink:href="#glyph-0-0" x="30" y="23.859375"/>
</g>
</svg>
