<?xml version="1.0" encoding="UTF-8"?>
<svg xmlns="http://www.w3.org/2000/svg" xmlns:xlink="http://www.w3.org/1999/xlink" width="854" height="480" viewBox="0 0 854 480">
<defs>
<g>
<g id="glyph-0-0">
<path d="M 0.9375 0.03125 C 0.789062 0.03125 0.660156 0 0.546875 -0.0625 C 0.429688 -0.125 0.34375 -0.222656 0.28125 -0.359375 C 0.21875 -0.492188 0.1875 -0.664062 0.1875 -0.875 C 0.1875 -1.113281 0.21875 -1.300781 0.28125 -1.4375 C 0.34375 -1.570312 0.429688 -1.664062 0.546875 -1.71875 C 0.660156 -1.78125 0.785156 -1.8125 0.921875 -1.8125 C 1.015625 -1.8125 1.101562 -1.800781 1.1875 -1.78125 C 1.28125 -1.757812 1.351562 -1.722656 1.40625 -1.671875 C 1.46875 -1.617188 1.5 -1.554688 1.5 -1.484375 C 1.5 -1.398438 1.472656 -1.34375 1.421875 -1.3125 C 1.378906 -1.28125 1.304688 -1.265625 1.203125 -1.265625 C 1.203125 -1.367188 1.179688 -1.457031 1.140625 -1.53125 C 1.109375 -1.613281 1.035156 -1.65625 0.921875 -1.65625 C 0.835938 -1.65625 0.765625 -1.628906 0.703125 -1.578125 C 0.640625 -1.535156 0.585938 -1.457031 0.546875 -1.34375 C 0.515625 -1.238281 0.5 -1.085938 0.5 -0.890625 C 0.5 -0.648438 0.535156 -0.472656 0.609375 -0.359375 C 0.691406 -0.242188 0.828125 -0.1875 1.015625 -0.1875 C 1.117188 -0.1875 1.207031 -0.207031 1.28125 -0.25 C 1.351562 -0.289062 1.410156 -0.347656 1.453125 -0.421875 C 1.484375 -0.390625 1.5 -0.34375 1.5 -0.28125 C 1.5 -0.226562 1.476562 -0.175781 1.4375 -0.125 C 1.394531 -0.0820312 1.332031 -0.046875 1.25 -0.015625 C 1.164062 0.015625 1.0625 0.03125 0.9375 0.03125 Z "/>
</g>
<g id="glyph-0-1">
<path d="M 0.578125 0.34375 C 0.429688 0.34375 0.320312 0.316406 0.25 0.265625 C 0.175781 0.210938 0.140625 0.148438 0.140625 0.078125 C 0.140625 0.0234375 0.148438 -0.015625 0.171875 -0.046875 C 0.203125 -0.078125 0.238281 -0.09375 0.28125 -0.09375 C 0.28125 -0.0195312 0.300781 0.0390625 0.34375 0.09375 C 0.394531 0.15625 0.46875 0.1875 0.5625 0.1875 C 0.65625 0.1875 0.726562 0.164062 0.78125 0.125 C 0.832031 0.0820312 0.859375 0.0078125 0.859375 -0.09375 C 0.859375 -0.175781 0.832031 -0.238281 0.78125 -0.28125 C 0.726562 -0.320312 0.640625 -0.34375 0.515625 -0.34375 L 0.40625 -0.34375 L 0.40625 -0.484375 L 0.515625 -0.484375 C 0.597656 -0.484375 0.664062 -0.507812 0.71875 -0.5625 C 0.78125 -0.613281 0.8125 -0.6875 0.8125 -0.78125 C 0.8125 -0.851562 0.796875 -0.90625 0.765625 -0.9375 C 0.734375 -0.976562 0.6875 -1 0.625 -1 C 0.539062 -1 0.484375 -0.96875 0.453125 -0.90625 C 0.421875 -0.851562 0.40625 -0.785156 0.40625 -0.703125 C 0.320312 -0.703125 0.257812 -0.710938 0.21875 -0.734375 C 0.175781 -0.753906 0.15625 -0.796875 0.15625 -0.859375 C 0.15625 -0.929688 0.191406 -0.992188 0.265625 -1.046875 C 0.347656 -1.109375 0.46875 -1.140625 0.625 -1.140625 C 0.769531 -1.140625 0.882812 -1.109375 0.96875 -1.046875 C 1.0625 -0.984375 1.109375 -0.898438 1.109375 -0.796875 C 1.109375 -0.703125 1.070312 -0.625 1 -0.5625 C 0.9375 -0.507812 0.859375 -0.46875 0.765625 -0.4375 L 0.765625 -0.421875 C 0.828125 -0.421875 0.890625 -0.40625 0.953125 -0.375 C 1.015625 -0.351562 1.066406 -0.320312 1.109375 -0.28125 C 1.148438 -0.238281 1.171875 -0.175781 1.171875 -0.09375 C 1.171875 0.0195312 1.140625 0.109375 1.078125 0.171875 C 1.015625 0.234375 0.9375 0.273438 0.84375 0.296875 C 0.757812 0.328125 0.671875 0.34375 0.578125 0.34375 Z "/>
</g>
</g>
</defs>
<g fill="rgb(97.647059%, 88.627451%, 68.627451%)" fill-opacity="1">
<use xlink:href="#glyph-0-0" x="30" y="23.5625"/>
<use xlink:href="#glyph-0-1" x="32" y="23.5625"/>
</g>
</svg>
