<?xml version="1.0" encoding="UTF-8"?>
<svg xmlns="http://www.w3.org/2000/svg" xmlns:xlink="http://www.w3.org/1999/xlink" width="854" height="480" viewBox="0 0 854 480">
<defs>
<g>
<g id="glyph-0-0">
<path d="M 0.109375 0.59375 C 0.253906 0.59375 0.367188 0.566406 0.453125 0.515625 C 0.546875 0.460938 0.617188 0.390625 0.671875 0.296875 C 0.722656 0.203125 0.769531 0.0976562 0.8125 -0.015625 L 0.234375 -1.34375 C 0.210938 -1.414062 0.1875 -1.460938 0.15625 -1.484375 C 0.125 -1.503906 0.078125 -1.515625 0.015625 -1.515625 L 0.015625 -1.640625 L 0.75 -1.640625 L 0.75 -1.515625 L 0.734375 -1.515625 C 0.609375 -1.515625 0.546875 -1.460938 0.546875 -1.359375 C 0.546875 -1.328125 0.554688 -1.289062 0.578125 -1.25 L 0.796875 -0.703125 C 0.816406 -0.660156 0.835938 -0.609375 0.859375 -0.546875 C 0.878906 -0.492188 0.894531 -0.441406 0.90625 -0.390625 C 0.925781 -0.335938 0.941406 -0.296875 0.953125 -0.265625 C 0.960938 -0.328125 0.976562 -0.390625 1 -0.453125 C 1.03125 -0.515625 1.054688 -0.578125 1.078125 -0.640625 L 1.28125 -1.234375 C 1.289062 -1.273438 1.296875 -1.316406 1.296875 -1.359375 C 1.296875 -1.460938 1.234375 -1.515625 1.109375 -1.515625 L 1.09375 -1.515625 L 1.09375 -1.640625 L 1.734375 -1.640625 L 1.734375 -1.515625 L 1.71875 -1.515625 C 1.65625 -1.515625 1.609375 -1.5 1.578125 -1.46875 C 1.554688 -1.4375 1.523438 -1.375 1.484375 -1.28125 L 1.015625 0.015625 C 0.960938 0.160156 0.910156 0.28125 0.859375 0.375 C 0.816406 0.46875 0.765625 0.539062 0.703125 0.59375 C 0.640625 0.644531 0.5625 0.679688 0.46875 0.703125 C 0.382812 0.722656 0.273438 0.734375 0.140625 0.734375 L 0.109375 0.734375 Z "/>
</g>
<g id="glyph-0-1">
</g>
<g id="glyph-0-2">
<path d="M 0.109375 0.59375 C 0.253906 0.59375 0.367188 0.566406 0.453125 0.515625 C 0.546875 0.460938 0.617188 0.390625 0.671875 0.296875 C 0.722656 0.203125 0.769531 0.0976562 0.8125 -0.015625 L 0.234375 -1.34375 C 0.210938 -1.414062 0.1875 -1.460938 0.15625 -1.484375 C 0.125 -1.503906 0.078125 -1.515625 0.015625 -1.515625 L 0.015625 -1.640625 L 0.75 -1.640625 L 0.75 -1.515625 L 0.734375 -1.515625 C 0.609375 -1.515625 0.546875 -1.460938 0.546875 -1.359375 C 0.546875 -1.328125 0.554688 -1.289062 0.578125 -1.25 L 0.796875 -0.703125 C 0.816406 -0.660156 0.835938 -0.609375 0.859375 -0.546875 C 0.878906 -0.492188 0.894531 -0.441406 0.90625 -0.390625 C 0.925781 -0.335938 0.941406 -0.296875 0.953125 -0.265625 C 0.960938 -0.328125 0.976562 -0.390625 1 -0.453125 C 1.03125 -0.515625 1.054688 -0.578125 1.078125 -0.640625 L 1.28125 -1.234375 C 1.289062 -1.273438 1.296875 -1.316406 1.296875 -1.359375 C 1.296875 -1.460938 1.234375 -1.515625 1.109375 -1.515625 L 1.09375 -1.515625 L 1.09375 -1.640625 L 1.734375 -1.640625 L 1.734375 -1.515625 L 1.71875 -1.515625 C 1.65625 -1.515625 1.609375 -1.5 1.578125 -1.46875 C 1.554688 -1.4375 1.523438 -1.375 1.484375 -1.28125 L 1.015625 0.015625 C 0.960938 0.160156 0.910156 0.28125 0.859375 0.375 C 0.816406 0.46875 0.765625 0.539062 0.703125 0.59375 C 0.640625 0.644531 0.5625 0.679688 0.46875 0.703125 C 0.382812 0.722656 0.273438 0.734375 0.140625 0.734375 L 0.109375 0.734375 Z M 0.453125 -1.890625 C 0.484375 -1.929688 0.515625 -1.976562 0.546875 -2.03125 C 0.585938 -2.082031 0.625 -2.132812 0.65625 -2.1875 C 0.695312 -2.25 0.726562 -2.300781 0.75 -2.34375 L 1.046875 -2.34375 C 1.066406 -2.300781 1.09375 -2.25 1.125 -2.1875 C 1.164062 -2.132812 1.207031 -2.082031 1.25 -2.03125 C 1.289062 -1.976562 1.328125 -1.929688 1.359375 -1.890625 L 1.359375 -1.859375 L 1.234375 -1.859375 C 1.179688 -1.890625 1.125 -1.929688 1.0625 -1.984375 C 1 -2.035156 0.945312 -2.082031 0.90625 -2.125 C 0.851562 -2.082031 0.796875 -2.035156 0.734375 -1.984375 C 0.679688 -1.929688 0.625 -1.890625 0.5625 -1.859375 L 0.453125 -1.859375 Z "/>
</g>
<g id="glyph-1-0">
<path d="M 7.609375 -4.75 L 7.609375 -5.328125 L 0.53125 -5.328125 L 0.53125 -4.75 Z "/>
</g>
</g>
</defs>
<g fill="rgb(79.607843%, 65.098039%, 96.862745%)" fill-opacity="1">
<use xlink:href="#glyph-0-0" x="30" y="36.114258"/>
<use xlink:href="#glyph-0-1" x="32" y="36.114258"/>
<use xlink:href="#glyph-0-1" x="33" y="36.114258"/>
</g>
<g fill="rgb(79.607843%, 65.098039%, 96.862745%)" fill-opacity="1">
<use xlink:href="#glyph-1-0" x="34" y="36.114258"/>
</g>
<g fill="rgb(79.607843%, 65.098039%, 96.862745%)" fill-opacity="1">
<use xlink:href="#glyph-0-1" x="42" y="36.114258"/>
<use xlink:href="#glyph-0-1" x="43" y="36.114258"/>
<use xlink:href="#glyph-0-2" x="44" y="36.114258"/>
</g>
</svg>
